# Blender v2.83.0 OBJ File: ''
# www.blender.org
mtllib table-dining.mtl
o table-dining
v 0.099137 -0.000000 0.117696
v 0.099137 -0.000000 0.002294
v 0.214539 -0.000000 0.002294
v 0.214539 -0.000000 0.117696
v 0.099137 1.009701 0.117696
v 0.214539 1.009701 0.117696
v 0.214539 1.009701 0.002294
v 0.099137 1.009701 0.002294
v 0.099137 1.038550 0.117696
v 0.214539 1.038550 0.117696
v 0.214539 1.038550 0.002294
v 0.099137 1.038550 0.002294
v 2.291772 1.009701 0.117696
v 2.291772 1.009701 0.002294
v 2.407174 1.009701 0.002294
v 2.407174 1.009701 0.117696
v 2.291772 1.038550 0.117696
v 2.407174 1.038550 0.117696
v 2.407174 1.038550 0.002294
v 2.291772 1.038550 0.002294
v 2.291772 -0.000000 0.117696
v 2.291772 -0.000000 0.002294
v 2.407174 -0.000000 0.002294
v 2.407174 -0.000000 0.117696
v 0.099137 1.009701 1.012060
v 0.099137 1.009701 0.896659
v 0.214539 1.009701 0.896659
v 0.214539 1.009701 1.012060
v 0.099137 1.038550 1.012060
v 0.214539 1.038550 1.012060
v 0.214539 1.038550 0.896659
v 0.099137 1.038550 0.896659
v 2.291772 1.009701 1.012060
v 2.291772 1.009701 0.896659
v 2.407174 1.009701 0.896659
v 2.407174 1.009701 1.012060
v 2.291772 1.038550 1.012060
v 2.407174 1.038550 1.012060
v 2.407174 1.038550 0.896659
v 2.291772 1.038550 0.896659
v 2.291772 -0.000000 1.012060
v 2.291772 -0.000000 0.896658
v 2.407174 -0.000000 0.896658
v 2.407174 -0.000000 1.012060
v 0.099137 -0.000000 1.012060
v 0.099137 -0.000000 0.896658
v 0.214539 -0.000000 0.896658
v 0.214539 -0.000000 1.012060
v 0.100003 1.125168 0.003160
v 0.100003 1.125168 1.011195
v 2.406308 1.125168 1.011195
v 2.406308 1.125168 0.003160
v 0.100003 1.125052 0.002727
v 0.099787 1.125052 0.002785
v 0.099628 1.125052 0.002944
v 0.099570 1.125052 0.003160
v 0.099570 1.125052 1.011195
v 0.099628 1.125052 1.011411
v 0.099787 1.125052 1.011570
v 0.100003 1.125052 1.011628
v 2.406308 1.125052 1.011628
v 2.406525 1.125052 1.011570
v 2.406683 1.125052 1.011411
v 2.406740 1.125052 1.011195
v 2.406740 1.125052 0.003160
v 2.406683 1.125052 0.002944
v 2.406525 1.125052 0.002785
v 2.406308 1.125052 0.002727
v 0.100003 1.124735 0.002410
v 0.099628 1.124735 0.002511
v 0.099354 1.124735 0.002785
v 0.099253 1.124735 0.003160
v 0.099253 1.124735 1.011195
v 0.099354 1.124735 1.011570
v 0.099628 1.124735 1.011844
v 0.100003 1.124735 1.011944
v 2.406308 1.124735 1.011944
v 2.406683 1.124735 1.011844
v 2.406957 1.124735 1.011570
v 2.407056 1.124735 1.011195
v 2.407056 1.124735 0.003160
v 2.406957 1.124735 0.002785
v 2.406683 1.124735 0.002511
v 2.406308 1.124735 0.002410
v 0.100003 1.124302 0.002294
v 0.099570 1.124302 0.002410
v 0.099253 1.124302 0.002727
v 0.099137 1.124302 0.003160
v 0.099137 1.124302 1.011195
v 0.099253 1.124302 1.011628
v 0.099570 1.124302 1.011944
v 0.100003 1.124302 1.012060
v 2.406308 1.124302 1.012060
v 2.406740 1.124302 1.011944
v 2.407056 1.124302 1.011628
v 2.407174 1.124302 1.011195
v 2.407174 1.124302 0.003160
v 2.407056 1.124302 0.002727
v 2.406740 1.124302 0.002410
v 2.406308 1.124302 0.002294
v 0.100003 1.039487 0.002294
v 0.099570 1.039487 0.002410
v 0.099253 1.039487 0.002727
v 0.099137 1.039487 0.003160
v 0.099137 1.039487 1.011195
v 0.099253 1.039487 1.011628
v 0.099570 1.039487 1.011944
v 0.100003 1.039487 1.012060
v 2.406308 1.039487 1.012060
v 2.406740 1.039487 1.011944
v 2.407056 1.039487 1.011628
v 2.407174 1.039487 1.011195
v 2.407174 1.039487 0.003160
v 2.407056 1.039487 0.002727
v 2.406740 1.039487 0.002410
v 2.406308 1.039487 0.002294
v 0.100003 1.039055 0.002410
v 0.099628 1.039055 0.002511
v 0.099354 1.039055 0.002785
v 0.099253 1.039055 0.003160
v 0.099253 1.039055 1.011195
v 0.099354 1.039055 1.011570
v 0.099628 1.039055 1.011844
v 0.100003 1.039055 1.011944
v 2.406308 1.039055 1.011944
v 2.406683 1.039055 1.011844
v 2.406957 1.039055 1.011570
v 2.407056 1.039055 1.011195
v 2.407056 1.039055 0.003160
v 2.406957 1.039055 0.002785
v 2.406683 1.039055 0.002511
v 2.406308 1.039055 0.002410
v 0.100003 1.038737 0.002727
v 0.099787 1.038737 0.002785
v 0.099628 1.038737 0.002944
v 0.099570 1.038737 0.003160
v 0.099570 1.038737 1.011195
v 0.099628 1.038737 1.011411
v 0.099787 1.038737 1.011570
v 0.100003 1.038737 1.011628
v 2.406308 1.038737 1.011628
v 2.406525 1.038737 1.011570
v 2.406683 1.038737 1.011411
v 2.406740 1.038737 1.011195
v 2.406740 1.038737 0.003160
v 2.406683 1.038737 0.002944
v 2.406525 1.038737 0.002785
v 2.406308 1.038737 0.002727
v 0.100003 1.038622 0.003160
v 0.100003 1.038622 1.011195
v 2.406308 1.038622 1.011195
v 2.406308 1.038622 0.003160
vt 1.000000 0.000000
vt 1.000000 1.000000
vt 0.000000 1.000000
vt 0.000000 0.000000
vt 0.000000 0.000000
vt 1.000000 0.000000
vt 1.000000 1.000000
vt 0.000000 1.000000
vt 0.000000 0.000000
vt 1.000000 0.000000
vt 1.000000 1.000000
vt 0.000000 1.000000
vt 1.000000 0.000000
vt 0.000000 1.000000
vt 0.000000 0.000000
vt 1.000000 0.000000
vt 1.000000 1.000000
vt 0.000000 1.000000
vt 0.000000 0.000000
vt 1.000000 1.000000
vt 1.000000 0.000000
vt 1.000000 1.000000
vt 0.000000 1.000000
vt 0.000000 0.000000
vt 0.000000 0.000000
vt 1.000000 0.000000
vt 1.000000 1.000000
vt 0.000000 1.000000
vt 1.000000 0.000000
vt 1.000000 1.000000
vt 0.000000 1.000000
vt 0.000000 0.000000
vt 1.000000 0.000000
vt 1.000000 1.000000
vt 0.000000 1.000000
vt 0.000000 0.000000
vt 1.000000 1.000000
vt 0.000000 1.000000
vt 1.000000 0.000000
vt 1.000000 1.000000
vt 0.000000 1.000000
vt 0.000000 0.000000
vt 0.000000 0.000000
vt 1.000000 0.000000
vt 1.000000 1.000000
vt 0.000000 1.000000
vt 1.000000 0.000000
vt 1.000000 1.000000
vt 0.000000 1.000000
vt 0.000000 0.000000
vt 1.000000 0.000000
vt 1.000000 1.000000
vt 0.000000 1.000000
vt 0.000000 0.000000
vt 1.000000 1.000000
vt 0.000000 1.000000
vt 1.000000 0.000000
vt 1.000000 1.000000
vt 0.000000 1.000000
vt 0.000000 0.000000
vt 0.000000 0.000000
vt 1.000000 0.000000
vt 1.000000 1.000000
vt 0.000000 1.000000
vt 1.000000 0.000000
vt 1.000000 1.000000
vt 0.000000 1.000000
vt 0.000000 0.000000
vt 1.000000 0.000000
vt 1.000000 1.000000
vt 0.000000 1.000000
vt 0.000000 0.000000
vt 1.000000 1.000000
vt 0.000000 1.000000
vt 0.000400 0.999100
vt 0.000400 0.000900
vt 0.999600 0.000900
vt 0.999600 0.999100
vt 0.000400 0.999600
vt 0.000300 0.999500
vt 0.000200 0.999400
vt 0.000200 0.999100
vt 0.000200 0.000900
vt 0.000200 0.000600
vt 0.000300 0.000500
vt 0.000400 0.000400
vt 0.999600 0.000400
vt 0.999700 0.000500
vt 0.999800 0.000600
vt 0.999800 0.000900
vt 0.999800 0.999100
vt 0.999800 0.999400
vt 0.999700 0.999500
vt 0.999600 0.999600
vt 0.000400 0.999900
vt 0.000200 0.999800
vt 0.000100 0.999500
vt 0.000100 0.999100
vt 0.000100 0.000900
vt 0.000100 0.000500
vt 0.000200 0.000200
vt 0.000400 0.000100
vt 0.999600 0.000100
vt 0.999800 0.000200
vt 0.999900 0.000500
vt 0.999900 0.000900
vt 0.999900 0.999100
vt 0.999900 0.999500
vt 0.999800 0.999800
vt 0.999600 0.999900
vt 0.000400 1.000000
vt 0.000200 0.999900
vt 0.000100 0.999600
vt 0.000000 0.999100
vt 0.000000 0.000900
vt 0.000100 0.000400
vt 0.000200 0.000100
vt 0.000400 0.000000
vt 0.999600 0.000000
vt 0.999800 0.000100
vt 0.999900 0.000400
vt 1.000000 0.000900
vt 1.000000 0.999100
vt 0.999900 0.999600
vt 0.999800 0.999900
vt 0.999600 1.000000
vt 0.000000 1.000000
vt 0.000000 0.000000
vt 0.000100 0.000000
vt 0.000100 1.000000
vt 0.000100 0.000000
vt 0.000100 1.000000
vt 0.000200 0.000000
vt 0.000200 1.000000
vt 0.152100 0.000000
vt 0.152100 1.000000
vt 0.152100 0.000000
vt 0.152100 1.000000
vt 0.152200 0.000000
vt 0.152200 1.000000
vt 0.152300 0.000000
vt 0.152300 1.000000
vt 0.499700 0.000000
vt 0.499700 1.000000
vt 0.499800 0.000000
vt 0.499800 1.000000
vt 0.499900 0.000000
vt 0.499900 1.000000
vt 0.499900 0.000000
vt 0.499900 1.000000
vt 0.651800 0.000000
vt 0.651800 1.000000
vt 0.651900 0.000000
vt 0.651900 1.000000
vt 0.651900 0.000000
vt 0.651900 1.000000
vt 0.652000 0.000000
vt 0.652000 1.000000
vt 1.000000 0.000000
vt 1.000000 1.000000
vt 0.000400 0.000000
vt 0.000400 0.000100
vt 0.000200 0.000200
vt 0.000200 0.000100
vt 0.000100 0.000500
vt 0.000100 0.000400
vt 0.000100 0.000900
vt 0.000000 0.000900
vt 0.000100 0.999100
vt 0.000000 0.999100
vt 0.000100 0.999500
vt 0.000100 0.999600
vt 0.000200 0.999800
vt 0.000200 0.999900
vt 0.000400 0.999900
vt 0.000400 1.000000
vt 0.999600 0.999900
vt 0.999600 1.000000
vt 0.999800 0.999800
vt 0.999800 0.999900
vt 0.999900 0.999500
vt 0.999900 0.999600
vt 0.999900 0.999100
vt 1.000000 0.999100
vt 0.999900 0.000900
vt 1.000000 0.000900
vt 0.999900 0.000500
vt 0.999900 0.000400
vt 0.999800 0.000200
vt 0.999800 0.000100
vt 0.999600 0.000100
vt 0.999600 0.000000
vt 0.000400 0.000400
vt 0.000300 0.000500
vt 0.000200 0.000600
vt 0.000200 0.000900
vt 0.000200 0.999100
vt 0.000200 0.999400
vt 0.000300 0.999500
vt 0.000400 0.999600
vt 0.999600 0.999600
vt 0.999700 0.999500
vt 0.999800 0.999400
vt 0.999800 0.999100
vt 0.999800 0.000900
vt 0.999800 0.000600
vt 0.999700 0.000500
vt 0.999600 0.000400
vt 0.000400 0.000900
vt 0.000400 0.999100
vt 0.999600 0.999100
vt 0.999600 0.000900
vt 0.000000 0.000000
vt 1.000000 0.000000
vt 1.000000 1.000000
vt 0.000000 1.000000
vt 1.000000 1.000000
vt 0.000000 1.000000
vt 0.000000 0.000000
vt 1.000000 0.000000
vt 0.000000 1.000000
vt 0.000000 0.000000
vt 1.000000 0.000000
vt 1.000000 1.000000
vt 0.000000 1.000000
vt 0.000000 0.000000
vt 1.000000 0.000000
vt 1.000000 1.000000
vt 1.000000 0.000000
vt 0.000000 0.000000
vt 0.000000 0.000000
vt 1.000000 0.000000
vt 1.000000 1.000000
vt 0.000000 1.000000
vt 0.000000 0.000000
vt 1.000000 0.000000
vt 1.000000 1.000000
vt 0.000000 1.000000
vt 1.000000 0.000000
vt 0.000000 1.000000
vt 0.000000 0.000000
vt 1.000000 0.000000
vt 1.000000 1.000000
vt 0.000000 1.000000
vt 0.000000 0.000000
vt 1.000000 1.000000
vt 1.000000 0.000000
vt 0.000000 0.000000
vt 0.000000 0.000000
vt 1.000000 0.000000
vt 1.000000 1.000000
vt 0.000000 1.000000
vt 0.000000 0.000000
vt 1.000000 0.000000
vt 1.000000 1.000000
vt 0.000000 1.000000
vt 1.000000 0.000000
vt 0.000000 1.000000
vt 0.000000 0.000000
vt 1.000000 0.000000
vt 1.000000 1.000000
vt 0.000000 1.000000
vt 0.000000 0.000000
vt 1.000000 1.000000
vt 1.000000 0.000000
vt 0.000000 0.000000
vt 0.000000 0.000000
vt 1.000000 0.000000
vt 1.000000 1.000000
vt 0.000000 1.000000
vt 0.000000 0.000000
vt 1.000000 0.000000
vt 1.000000 1.000000
vt 0.000000 1.000000
vt 1.000000 0.000000
vt 0.000000 1.000000
vt 0.000000 0.000000
vt 1.000000 0.000000
vt 1.000000 1.000000
vt 0.000000 1.000000
vt 0.000000 0.000000
vt 1.000000 1.000000
vn 0.0000 -1.0000 -0.0000
vn 0.0000 1.0000 0.0000
vn 0.0000 -0.0000 1.0000
vn 1.0000 -0.0000 0.0000
vn 0.0000 0.0000 -1.0000
vn -1.0000 0.0000 0.0000
vn -0.1087 0.9881 -0.1089
vn -0.1087 0.9881 0.1088
vn 0.1086 0.9881 0.1087
vn 0.1085 0.9882 -0.1084
vn -0.0697 0.8551 -0.5137
vn -0.2651 0.8474 -0.4601
vn -0.4598 0.8474 -0.2655
vn -0.5139 0.8550 -0.0698
vn -0.5138 0.8551 0.0697
vn -0.4598 0.8474 0.2657
vn -0.2654 0.8473 0.4600
vn -0.0693 0.8548 0.5144
vn 0.0698 0.8548 0.5142
vn 0.2653 0.8473 0.4601
vn 0.4598 0.8476 0.2650
vn 0.5144 0.8548 0.0692
vn 0.5140 0.8550 -0.0695
vn 0.4599 0.8475 -0.2652
vn 0.2652 0.8476 -0.4596
vn 0.0697 0.8550 -0.5139
vn -0.1129 0.4884 -0.8653
vn -0.4381 0.4823 -0.7586
vn -0.7586 0.4823 -0.4380
vn -0.8654 0.4882 -0.1130
vn -0.8653 0.4884 0.1128
vn -0.7584 0.4823 0.4384
vn -0.4380 0.4823 0.7587
vn -0.1130 0.4882 0.8654
vn 0.1128 0.4882 0.8654
vn 0.4379 0.4824 0.7586
vn 0.7586 0.4823 0.4380
vn 0.8656 0.4879 0.1131
vn 0.8653 0.4884 -0.1128
vn 0.7586 0.4822 -0.4382
vn 0.4380 0.4823 -0.7586
vn 0.1129 0.4883 -0.8654
vn -0.1281 0.1281 -0.9835
vn -0.4955 0.1280 -0.8591
vn -0.8589 0.1279 -0.4959
vn -0.9834 0.1281 -0.1281
vn -0.9834 0.1281 0.1282
vn -0.8586 0.1280 0.4963
vn -0.4958 0.1278 0.8590
vn -0.1285 0.1285 0.9834
vn 0.1283 0.1282 0.9834
vn 0.4960 0.1276 0.8589
vn 0.8589 0.1277 0.4960
vn 0.9835 0.1280 0.1282
vn 0.9834 0.1283 -0.1282
vn 0.8591 0.1275 -0.4957
vn 0.4958 0.1280 -0.8589
vn 0.1282 0.1283 -0.9834
vn -0.1282 -0.1282 -0.9834
vn -0.4960 -0.1278 -0.8589
vn -0.8591 -0.1281 -0.4955
vn -0.9834 -0.1281 -0.1281
vn -0.9835 -0.1281 0.1281
vn -0.8589 -0.1281 0.4958
vn -0.4959 -0.1278 0.8589
vn -0.1283 -0.1283 0.9834
vn 0.1285 -0.1284 0.9834
vn 0.4959 -0.1278 0.8590
vn 0.8588 -0.1277 0.4961
vn 0.9834 -0.1283 0.1283
vn 0.9834 -0.1280 -0.1282
vn 0.8588 -0.1278 -0.4961
vn 0.4959 -0.1278 -0.8589
vn 0.1281 -0.1281 -0.9834
vn -0.1129 -0.4882 -0.8654
vn -0.4385 -0.4820 -0.7586
vn -0.7581 -0.4826 -0.4386
vn -0.8653 -0.4883 -0.1129
vn -0.8653 -0.4883 0.1130
vn -0.7586 -0.4822 0.4382
vn -0.4380 -0.4821 0.7587
vn -0.1128 -0.4883 0.8654
vn 0.1128 -0.4881 0.8654
vn 0.4380 -0.4821 0.7588
vn 0.7584 -0.4825 0.4382
vn 0.8652 -0.4885 0.1129
vn 0.8655 -0.4879 -0.1130
vn 0.7586 -0.4824 -0.4380
vn 0.4380 -0.4824 -0.7586
vn 0.1129 -0.4884 -0.8653
vn -0.0697 -0.8551 -0.5138
vn -0.2650 -0.8476 -0.4596
vn -0.4601 -0.8473 -0.2652
vn -0.5137 -0.8551 -0.0698
vn -0.5139 -0.8550 0.0697
vn -0.4597 -0.8475 0.2653
vn -0.2655 -0.8473 0.4599
vn -0.0698 -0.8549 0.5140
vn 0.0691 -0.8548 0.5143
vn 0.2654 -0.8474 0.4599
vn 0.4600 -0.8474 0.2651
vn 0.5141 -0.8549 0.0695
vn 0.5141 -0.8549 -0.0695
vn 0.4598 -0.8475 -0.2651
vn 0.2653 -0.8472 -0.4603
vn 0.0696 -0.8551 -0.5138
vn -0.1085 -0.9882 -0.1084
vn -0.1087 -0.9881 0.1085
vn 0.1082 -0.9882 0.1082
vn 0.1086 -0.9881 -0.1086
usemtl Box01_1
s 1
f 1/1/1 2/2/1 3/3/1
f 1/1/1 3/3/1 4/4/1
f 5/5/2 6/6/2 7/7/2
f 5/5/2 7/7/2 8/8/2
f 1/9/3 4/10/3 6/11/3
f 1/9/3 6/11/3 5/12/3
f 4/4/4 3/13/4 7/7/4
f 4/4/4 7/7/4 6/14/4
f 3/15/5 2/16/5 8/17/5
f 3/15/5 8/17/5 7/18/5
f 2/19/6 1/1/6 5/20/6
f 2/19/6 5/20/6 8/8/6
f 21/21/1 22/22/1 23/23/1
f 21/21/1 23/23/1 24/24/1
f 21/25/3 24/26/3 16/27/3
f 21/25/3 16/27/3 13/28/3
f 24/24/4 23/29/4 15/30/4
f 24/24/4 15/30/4 16/31/4
f 23/32/5 22/33/5 14/34/5
f 23/32/5 14/34/5 15/35/5
f 22/36/6 21/21/6 13/37/6
f 22/36/6 13/37/6 14/38/6
f 41/39/1 42/40/1 43/41/1
f 41/39/1 43/41/1 44/42/1
f 41/43/3 44/44/3 36/45/3
f 41/43/3 36/45/3 33/46/3
f 44/42/4 43/47/4 35/48/4
f 44/42/4 35/48/4 36/49/4
f 43/50/5 42/51/5 34/52/5
f 43/50/5 34/52/5 35/53/5
f 42/54/6 41/39/6 33/55/6
f 42/54/6 33/55/6 34/56/6
f 45/57/1 46/58/1 47/59/1
f 45/57/1 47/59/1 48/60/1
f 45/61/3 48/62/3 28/63/3
f 45/61/3 28/63/3 25/64/3
f 48/60/4 47/65/4 27/66/4
f 48/60/4 27/66/4 28/67/4
f 47/68/5 46/69/5 26/70/5
f 47/68/5 26/70/5 27/71/5
f 46/72/6 45/57/6 25/73/6
f 46/72/6 25/73/6 26/74/6
f 49/75/7 50/76/8 51/77/9
f 49/75/7 51/77/9 52/78/10
f 49/75/7 53/79/11 54/80/12
f 49/75/7 54/80/12 55/81/13
f 49/75/7 55/81/13 56/82/14
f 49/75/7 56/82/14 57/83/15
f 49/75/7 57/83/15 50/76/8
f 50/76/8 57/83/15 58/84/16
f 50/76/8 58/84/16 59/85/17
f 50/76/8 59/85/17 60/86/18
f 50/76/8 60/86/18 61/87/19
f 50/76/8 61/87/19 51/77/9
f 51/77/9 61/87/19 62/88/20
f 51/77/9 62/88/20 63/89/21
f 51/77/9 63/89/21 64/90/22
f 51/77/9 64/90/22 65/91/23
f 51/77/9 65/91/23 52/78/10
f 52/78/10 65/91/23 66/92/24
f 52/78/10 66/92/24 67/93/25
f 52/78/10 67/93/25 68/94/26
f 52/78/10 68/94/26 53/79/11
f 52/78/10 53/79/11 49/75/7
f 53/79/11 69/95/27 70/96/28
f 53/79/11 70/96/28 54/80/12
f 54/80/12 70/96/28 71/97/29
f 54/80/12 71/97/29 55/81/13
f 55/81/13 71/97/29 72/98/30
f 55/81/13 72/98/30 56/82/14
f 56/82/14 72/98/30 73/99/31
f 56/82/14 73/99/31 57/83/15
f 57/83/15 73/99/31 74/100/32
f 57/83/15 74/100/32 58/84/16
f 58/84/16 74/100/32 75/101/33
f 58/84/16 75/101/33 59/85/17
f 59/85/17 75/101/33 76/102/34
f 59/85/17 76/102/34 60/86/18
f 60/86/18 76/102/34 77/103/35
f 60/86/18 77/103/35 61/87/19
f 61/87/19 77/103/35 78/104/36
f 61/87/19 78/104/36 62/88/20
f 62/88/20 78/104/36 79/105/37
f 62/88/20 79/105/37 63/89/21
f 63/89/21 79/105/37 80/106/38
f 63/89/21 80/106/38 64/90/22
f 64/90/22 80/106/38 81/107/39
f 64/90/22 81/107/39 65/91/23
f 65/91/23 81/107/39 82/108/40
f 65/91/23 82/108/40 66/92/24
f 66/92/24 82/108/40 83/109/41
f 66/92/24 83/109/41 67/93/25
f 67/93/25 83/109/41 84/110/42
f 67/93/25 84/110/42 68/94/26
f 68/94/26 84/110/42 69/95/27
f 68/94/26 69/95/27 53/79/11
f 69/95/27 85/111/43 86/112/44
f 69/95/27 86/112/44 70/96/28
f 70/96/28 86/112/44 87/113/45
f 70/96/28 87/113/45 71/97/29
f 71/97/29 87/113/45 88/114/46
f 71/97/29 88/114/46 72/98/30
f 72/98/30 88/114/46 89/115/47
f 72/98/30 89/115/47 73/99/31
f 73/99/31 89/115/47 90/116/48
f 73/99/31 90/116/48 74/100/32
f 74/100/32 90/116/48 91/117/49
f 74/100/32 91/117/49 75/101/33
f 75/101/33 91/117/49 92/118/50
f 75/101/33 92/118/50 76/102/34
f 76/102/34 92/118/50 93/119/51
f 76/102/34 93/119/51 77/103/35
f 77/103/35 93/119/51 94/120/52
f 77/103/35 94/120/52 78/104/36
f 78/104/36 94/120/52 95/121/53
f 78/104/36 95/121/53 79/105/37
f 79/105/37 95/121/53 96/122/54
f 79/105/37 96/122/54 80/106/38
f 80/106/38 96/122/54 97/123/55
f 80/106/38 97/123/55 81/107/39
f 81/107/39 97/123/55 98/124/56
f 81/107/39 98/124/56 82/108/40
f 82/108/40 98/124/56 99/125/57
f 82/108/40 99/125/57 83/109/41
f 83/109/41 99/125/57 100/126/58
f 83/109/41 100/126/58 84/110/42
f 84/110/42 100/126/58 85/111/43
f 84/110/42 85/111/43 69/95/27
f 85/127/43 101/128/59 102/129/60
f 85/127/43 102/129/60 86/130/44
f 86/130/44 102/129/60 103/131/61
f 86/130/44 103/131/61 87/132/45
f 87/132/45 103/131/61 104/133/62
f 87/132/45 104/133/62 88/134/46
f 88/134/46 104/133/62 105/135/63
f 88/134/46 105/135/63 89/136/47
f 89/136/47 105/135/63 106/137/64
f 89/136/47 106/137/64 90/138/48
f 90/138/48 106/137/64 107/139/65
f 90/138/48 107/139/65 91/140/49
f 91/140/49 107/139/65 108/141/66
f 91/140/49 108/141/66 92/142/50
f 92/142/50 108/141/66 109/143/67
f 92/142/50 109/143/67 93/144/51
f 93/144/51 109/143/67 110/145/68
f 93/144/51 110/145/68 94/146/52
f 94/146/52 110/145/68 111/147/69
f 94/146/52 111/147/69 95/148/53
f 95/148/53 111/147/69 112/149/70
f 95/148/53 112/149/70 96/150/54
f 96/150/54 112/149/70 113/151/71
f 96/150/54 113/151/71 97/152/55
f 97/152/55 113/151/71 114/153/72
f 97/152/55 114/153/72 98/154/56
f 98/154/56 114/153/72 115/155/73
f 98/154/56 115/155/73 99/156/57
f 99/156/57 115/155/73 116/157/74
f 99/156/57 116/157/74 100/158/58
f 100/158/58 116/157/74 101/159/59
f 100/158/58 101/159/59 85/160/43
f 101/161/59 117/162/75 118/163/76
f 101/161/59 118/163/76 102/164/60
f 102/164/60 118/163/76 119/165/77
f 102/164/60 119/165/77 103/166/61
f 103/166/61 119/165/77 120/167/78
f 103/166/61 120/167/78 104/168/62
f 104/168/62 120/167/78 121/169/79
f 104/168/62 121/169/79 105/170/63
f 105/170/63 121/169/79 122/171/80
f 105/170/63 122/171/80 106/172/64
f 106/172/64 122/171/80 123/173/81
f 106/172/64 123/173/81 107/174/65
f 107/174/65 123/173/81 124/175/82
f 107/174/65 124/175/82 108/176/66
f 108/176/66 124/175/82 125/177/83
f 108/176/66 125/177/83 109/178/67
f 109/178/67 125/177/83 126/179/84
f 109/178/67 126/179/84 110/180/68
f 110/180/68 126/179/84 127/181/85
f 110/180/68 127/181/85 111/182/69
f 111/182/69 127/181/85 128/183/86
f 111/182/69 128/183/86 112/184/70
f 112/184/70 128/183/86 129/185/87
f 112/184/70 129/185/87 113/186/71
f 113/186/71 129/185/87 130/187/88
f 113/186/71 130/187/88 114/188/72
f 114/188/72 130/187/88 131/189/89
f 114/188/72 131/189/89 115/190/73
f 115/190/73 131/189/89 132/191/90
f 115/190/73 132/191/90 116/192/74
f 116/192/74 132/191/90 117/162/75
f 116/192/74 117/162/75 101/161/59
f 117/162/75 133/193/91 134/194/92
f 117/162/75 134/194/92 118/163/76
f 118/163/76 134/194/92 135/195/93
f 118/163/76 135/195/93 119/165/77
f 119/165/77 135/195/93 136/196/94
f 119/165/77 136/196/94 120/167/78
f 120/167/78 136/196/94 137/197/95
f 120/167/78 137/197/95 121/169/79
f 121/169/79 137/197/95 138/198/96
f 121/169/79 138/198/96 122/171/80
f 122/171/80 138/198/96 139/199/97
f 122/171/80 139/199/97 123/173/81
f 123/173/81 139/199/97 140/200/98
f 123/173/81 140/200/98 124/175/82
f 124/175/82 140/200/98 141/201/99
f 124/175/82 141/201/99 125/177/83
f 125/177/83 141/201/99 142/202/100
f 125/177/83 142/202/100 126/179/84
f 126/179/84 142/202/100 143/203/101
f 126/179/84 143/203/101 127/181/85
f 127/181/85 143/203/101 144/204/102
f 127/181/85 144/204/102 128/183/86
f 128/183/86 144/204/102 145/205/103
f 128/183/86 145/205/103 129/185/87
f 129/185/87 145/205/103 146/206/104
f 129/185/87 146/206/104 130/187/88
f 130/187/88 146/206/104 147/207/105
f 130/187/88 147/207/105 131/189/89
f 131/189/89 147/207/105 148/208/106
f 131/189/89 148/208/106 132/191/90
f 132/191/90 148/208/106 133/193/91
f 132/191/90 133/193/91 117/162/75
f 133/193/91 149/209/107 134/194/92
f 134/194/92 149/209/107 135/195/93
f 135/195/93 149/209/107 136/196/94
f 136/196/94 149/209/107 150/210/108
f 136/196/94 150/210/108 137/197/95
f 137/197/95 150/210/108 138/198/96
f 138/198/96 150/210/108 139/199/97
f 139/199/97 150/210/108 140/200/98
f 140/200/98 150/210/108 151/211/109
f 140/200/98 151/211/109 141/201/99
f 141/201/99 151/211/109 142/202/100
f 142/202/100 151/211/109 143/203/101
f 143/203/101 151/211/109 144/204/102
f 144/204/102 151/211/109 152/212/110
f 144/204/102 152/212/110 145/205/103
f 145/205/103 152/212/110 146/206/104
f 146/206/104 152/212/110 147/207/105
f 147/207/105 152/212/110 148/208/106
f 148/208/106 152/212/110 149/209/107
f 148/208/106 149/209/107 133/193/91
f 152/212/110 151/211/109 150/210/108
f 152/212/110 150/210/108 149/209/107
usemtl Box35_2
f 9/213/2 10/214/2 11/215/2
f 9/213/2 11/215/2 12/216/2
f 5/5/3 6/6/3 10/217/3
f 5/5/3 10/217/3 9/218/3
f 6/219/4 7/220/4 11/215/4
f 6/219/4 11/215/4 10/221/4
f 7/222/5 8/223/5 12/224/5
f 7/222/5 12/224/5 11/225/5
f 8/226/6 5/227/6 9/228/6
f 8/226/6 9/228/6 12/216/6
f 13/229/1 14/34/1 15/35/1
f 13/229/1 15/35/1 16/230/1
f 17/231/2 18/232/2 19/233/2
f 17/231/2 19/233/2 20/234/2
f 13/235/3 16/236/3 18/237/3
f 13/235/3 18/237/3 17/238/3
f 16/230/4 15/239/4 19/233/4
f 16/230/4 19/233/4 18/240/4
f 15/241/5 14/242/5 20/243/5
f 15/241/5 20/243/5 19/244/5
f 14/245/6 13/229/6 17/246/6
f 14/245/6 17/246/6 20/234/6
f 25/247/1 26/70/1 27/71/1
f 25/247/1 27/71/1 28/248/1
f 29/249/2 30/250/2 31/251/2
f 29/249/2 31/251/2 32/252/2
f 25/253/3 28/254/3 30/255/3
f 25/253/3 30/255/3 29/256/3
f 28/248/4 27/257/4 31/251/4
f 28/248/4 31/251/4 30/258/4
f 27/259/5 26/260/5 32/261/5
f 27/259/5 32/261/5 31/262/5
f 26/263/6 25/247/6 29/264/6
f 26/263/6 29/264/6 32/252/6
f 33/265/1 34/52/1 35/53/1
f 33/265/1 35/53/1 36/266/1
f 37/267/2 38/268/2 39/269/2
f 37/267/2 39/269/2 40/270/2
f 33/271/3 36/272/3 38/273/3
f 33/271/3 38/273/3 37/274/3
f 36/266/4 35/275/4 39/269/4
f 36/266/4 39/269/4 38/276/4
f 35/277/5 34/278/5 40/279/5
f 35/277/5 40/279/5 39/280/5
f 34/281/6 33/265/6 37/282/6
f 34/281/6 37/282/6 40/270/6
