# Blender v2.83.0 OBJ File: ''
# www.blender.org
mtllib high-co-table.mtl
o high-co-table
v 2.400410 1.016082 2.264437
v 2.315332 1.016082 2.272805
v 2.315332 1.016082 1.837211
v 2.482218 1.016082 2.239647
v 2.557614 1.016082 2.199394
v 2.623701 1.016082 2.145224
v 2.677934 1.016082 2.079214
v 2.718233 1.016082 2.003904
v 2.743052 1.016082 1.922191
v 2.751429 1.016082 1.837211
v 2.743052 1.016082 1.752231
v 2.718233 1.016082 1.670518
v 2.677934 1.016082 1.595208
v 2.623701 1.016082 1.529198
v 2.557614 1.016082 1.475028
v 2.482218 1.016082 1.434774
v 2.400410 1.016082 1.409985
v 2.315332 1.016082 1.401617
v 2.230254 1.016082 1.409985
v 2.148446 1.016082 1.434774
v 2.073050 1.016082 1.475028
v 2.006963 1.016082 1.529198
v 1.952730 1.016082 1.595208
v 1.912431 1.016082 1.670518
v 1.887612 1.016082 1.752231
v 1.879235 1.016082 1.837211
v 1.887612 1.016082 1.922191
v 1.912431 1.016082 2.003904
v 1.952730 1.016082 2.079214
v 2.006963 1.016082 2.145224
v 2.073050 1.016082 2.199394
v 2.148446 1.016082 2.239647
v 2.230254 1.016082 2.264437
v 2.315332 1.119238 2.272805
v 2.400410 1.119238 2.264437
v 2.482218 1.119238 2.239647
v 2.557614 1.119238 2.199394
v 2.623701 1.119238 2.145224
v 2.677934 1.119238 2.079214
v 2.718233 1.119238 2.003904
v 2.743052 1.119238 1.922191
v 2.751429 1.119238 1.837211
v 2.743052 1.119238 1.752231
v 2.718233 1.119238 1.670518
v 2.677934 1.119238 1.595208
v 2.623701 1.119238 1.529198
v 2.557614 1.119238 1.475028
v 2.482218 1.119238 1.434774
v 2.400410 1.119238 1.409985
v 2.315332 1.119238 1.401617
v 2.230254 1.119238 1.409985
v 2.148446 1.119238 1.434774
v 2.073050 1.119238 1.475028
v 2.006963 1.119238 1.529198
v 1.952730 1.119238 1.595208
v 1.912431 1.119238 1.670518
v 1.887612 1.119238 1.752231
v 1.879235 1.119238 1.837211
v 1.887612 1.119238 1.922191
v 1.912431 1.119238 2.003904
v 1.952730 1.119238 2.079214
v 2.006963 1.119238 2.145224
v 2.073050 1.119238 2.199394
v 2.148446 1.119238 2.239647
v 2.230254 1.119238 2.264437
v 2.315332 1.119238 1.837211
v 2.332021 0.036104 1.877455
v 2.315332 0.036104 1.880770
v 2.315332 0.036104 1.837211
v 2.346169 0.036104 1.868011
v 2.355623 0.036104 1.853881
v 2.358942 0.036104 1.837211
v 2.355623 0.036104 1.820541
v 2.346169 0.036104 1.806410
v 2.332021 0.036104 1.796966
v 2.315332 0.036104 1.793651
v 2.298643 0.036104 1.796966
v 2.284496 0.036104 1.806410
v 2.275041 0.036104 1.820541
v 2.271722 0.036104 1.837211
v 2.275041 0.036104 1.853881
v 2.284496 0.036104 1.868011
v 2.298643 0.036104 1.877455
v 2.315332 1.067660 1.880770
v 2.332021 1.067660 1.877455
v 2.346169 1.067660 1.868012
v 2.355623 1.067660 1.853881
v 2.358942 1.067660 1.837211
v 2.355623 1.067660 1.820541
v 2.346169 1.067660 1.806410
v 2.332021 1.067660 1.796966
v 2.315332 1.067660 1.793651
v 2.298643 1.067660 1.796966
v 2.284496 1.067660 1.806410
v 2.275041 1.067660 1.820541
v 2.271722 1.067660 1.837211
v 2.275041 1.067660 1.853881
v 2.284496 1.067660 1.868012
v 2.298643 1.067660 1.877455
v 2.315332 1.067660 1.837211
v 2.349365 -0.000000 2.008099
v 2.315332 -0.000000 2.011448
v 2.315332 -0.000000 1.837211
v 2.382085 -0.000000 1.998184
v 2.412246 -0.000000 1.982085
v 2.438678 -0.000000 1.960414
v 2.460373 -0.000000 1.934013
v 2.476492 -0.000000 1.903887
v 2.486417 -0.000000 1.871204
v 2.489771 -0.000000 1.837211
v 2.486417 -0.000000 1.803217
v 2.476492 -0.000000 1.770534
v 2.460373 -0.000000 1.740409
v 2.438678 -0.000000 1.714007
v 2.412246 -0.000000 1.692337
v 2.382085 -0.000000 1.676237
v 2.349365 -0.000000 1.666323
v 2.315332 -0.000000 1.662973
v 2.281299 -0.000000 1.666323
v 2.248579 -0.000000 1.676237
v 2.218418 -0.000000 1.692337
v 2.191986 -0.000000 1.714007
v 2.170290 -0.000000 1.740409
v 2.154172 -0.000000 1.770534
v 2.144247 -0.000000 1.803217
v 2.140893 -0.000000 1.837211
v 2.144247 -0.000000 1.871204
v 2.154172 -0.000000 1.903887
v 2.170290 -0.000000 1.934013
v 2.191986 -0.000000 1.960414
v 2.218418 -0.000000 1.982085
v 2.248579 -0.000000 1.998184
v 2.281299 -0.000000 2.008099
v 2.315332 0.072209 2.011448
v 2.349365 0.072209 2.008099
v 2.382085 0.072209 1.998184
v 2.412246 0.072209 1.982085
v 2.438678 0.072209 1.960414
v 2.460373 0.072209 1.934013
v 2.476492 0.072209 1.903887
v 2.486417 0.072209 1.871204
v 2.489771 0.072209 1.837211
v 2.486417 0.072209 1.803217
v 2.476492 0.072209 1.770534
v 2.460373 0.072209 1.740409
v 2.438678 0.072209 1.714007
v 2.412246 0.072209 1.692337
v 2.382085 0.072209 1.676237
v 2.349365 0.072209 1.666323
v 2.315332 0.072209 1.662973
v 2.281299 0.072209 1.666323
v 2.248579 0.072209 1.676237
v 2.218418 0.072209 1.692337
v 2.191986 0.072209 1.714007
v 2.170290 0.072209 1.740409
v 2.154172 0.072209 1.770534
v 2.144247 0.072209 1.803217
v 2.140893 0.072209 1.837211
v 2.144247 0.072209 1.871204
v 2.154172 0.072209 1.903887
v 2.170290 0.072209 1.934013
v 2.191986 0.072209 1.960414
v 2.218418 0.072209 1.982085
v 2.248579 0.072209 1.998184
v 2.281299 0.072209 2.008099
v 2.315332 0.072209 1.837211
vt 3.399277 5.722998
vt 3.427177 5.439331
vt 1.974825 5.439331
vt 3.316624 5.995759
vt 3.182412 6.247147
vt 3.001797 6.467490
vt 2.781708 6.648313
vt 2.530611 6.782680
vt 2.258164 6.865429
vt 1.974825 6.893360
vt 1.691486 6.865429
vt 1.419039 6.782680
vt 1.167942 6.648313
vt 0.947853 6.467490
vt 0.767238 6.247147
vt 0.633026 5.995759
vt 0.550373 5.722998
vt 0.522473 5.439331
vt 0.550373 5.155665
vt 0.633026 4.882904
vt 0.767238 4.631516
vt 0.947853 4.411172
vt 1.167942 4.230350
vt 1.419039 4.095983
vt 1.691486 4.013234
vt 1.974825 3.985302
vt 2.258164 4.013234
vt 2.530611 4.095983
vt 2.781708 4.230350
vt 3.001797 4.411172
vt 3.182412 4.631516
vt 3.316624 4.882904
vt 3.399277 5.155665
vt 3.427177 5.783271
vt 3.399277 6.066938
vt 3.316624 6.339699
vt 3.182412 6.591087
vt 3.001797 6.811430
vt 2.781708 6.992253
vt 2.530611 7.126620
vt 2.258164 7.209369
vt 1.974825 7.237300
vt 1.691486 7.209369
vt 1.419039 7.126620
vt 1.167942 6.992253
vt 0.947853 6.811430
vt 0.767238 6.591087
vt 0.633026 6.339699
vt 0.550373 6.066938
vt 0.522473 5.783271
vt 0.550373 5.499605
vt 0.633026 5.226843
vt 0.767238 4.975456
vt 0.947853 4.755113
vt 1.167942 4.574290
vt 1.419039 4.439922
vt 1.691486 4.357174
vt 1.974825 4.329242
vt 2.258164 4.357174
vt 2.530611 4.439922
vt 2.781708 4.574290
vt 3.001797 4.755113
vt 3.182412 4.975456
vt 3.316624 5.226843
vt 3.399277 5.499605
vt 1.974825 5.783271
vt 2.109008 2.227547
vt 2.120060 2.171901
vt 1.974825 2.171901
vt 2.077521 2.274716
vt 2.030406 2.306239
vt 1.974825 2.317304
vt 1.919243 2.306239
vt 1.872129 2.274716
vt 1.840642 2.227547
vt 1.829590 2.171901
vt 1.840642 2.116256
vt 1.872129 2.069087
vt 1.919243 2.037563
vt 1.974825 2.026498
vt 2.030406 2.037563
vt 2.077521 2.069087
vt 2.109008 2.116256
vt 2.120060 5.611301
vt 2.109008 5.666947
vt 2.077521 5.714116
vt 2.030406 5.745639
vt 1.974825 5.756704
vt 1.919243 5.745639
vt 1.872129 5.714116
vt 1.840642 5.666947
vt 1.829590 5.611301
vt 1.840642 5.555656
vt 1.872129 5.508487
vt 1.919243 5.476963
vt 1.974825 5.465898
vt 2.030406 5.476963
vt 2.077521 5.508487
vt 2.109008 5.555656
vt 1.974825 5.611301
vt 2.544597 2.164995
vt 2.555766 2.051522
vt 1.974825 2.051522
vt 2.511541 2.274091
vt 2.457863 2.374651
vt 2.385608 2.462780
vt 2.297581 2.535118
vt 2.197136 2.588859
vt 2.088166 2.621953
vt 1.974825 2.633134
vt 1.861483 2.621953
vt 1.752514 2.588859
vt 1.652069 2.535118
vt 1.564042 2.462780
vt 1.491787 2.374651
vt 1.438108 2.274091
vt 1.405053 2.164995
vt 1.393884 2.051522
vt 1.405053 1.938050
vt 1.438108 1.828954
vt 1.491787 1.728393
vt 1.564042 1.640265
vt 1.652069 1.567927
vt 1.752514 1.514186
vt 1.861483 1.481092
vt 1.974825 1.469911
vt 2.088166 1.481092
vt 2.197136 1.514186
vt 2.297581 1.567927
vt 2.385608 1.640265
vt 2.457863 1.728393
vt 2.511541 1.828954
vt 2.544597 1.938050
vt 2.555766 2.292280
vt 2.544597 2.405753
vt 2.511541 2.514848
vt 2.457863 2.615409
vt 2.385608 2.703538
vt 2.297581 2.775876
vt 2.197136 2.829617
vt 2.088166 2.862710
vt 1.974825 2.873892
vt 1.861483 2.862710
vt 1.752514 2.829617
vt 1.652069 2.775876
vt 1.564042 2.703538
vt 1.491787 2.615409
vt 1.438108 2.514848
vt 1.405053 2.405753
vt 1.393884 2.292280
vt 1.405053 2.178808
vt 1.438108 2.069712
vt 1.491787 1.969151
vt 1.564042 1.881022
vt 1.652069 1.808685
vt 1.752514 1.754944
vt 1.861483 1.721850
vt 1.974825 1.710668
vt 2.088166 1.721850
vt 2.197136 1.754944
vt 2.297581 1.808685
vt 2.385608 1.881022
vt 2.457863 1.969151
vt 2.511541 2.069712
vt 2.544597 2.178808
vt 1.974825 2.292280
vn 0.0000 -1.0000 0.0000
vn 0.0000 0.0000 1.0000
vn 0.1949 0.0000 0.9808
vn 0.3831 0.0000 0.9237
vn 0.5560 0.0000 0.8312
vn 0.7074 0.0000 0.7068
vn 0.8317 0.0000 0.5552
vn 0.9240 0.0000 0.3824
vn 0.9241 -0.0000 0.3822
vn 0.9808 0.0000 0.1950
vn 0.9808 -0.0000 0.1948
vn 1.0000 0.0000 -0.0000
vn 0.9808 0.0000 -0.1950
vn 0.9807 0.0000 -0.1953
vn 0.9240 0.0000 -0.3824
vn 0.9240 0.0000 -0.3825
vn 0.8318 -0.0000 -0.5551
vn 0.7075 0.0000 -0.7067
vn 0.5560 0.0000 -0.8312
vn 0.3831 -0.0000 -0.9237
vn 0.3830 0.0000 -0.9238
vn 0.1949 0.0000 -0.9808
vn -0.0000 0.0000 -1.0000
vn -0.1949 0.0000 -0.9808
vn -0.3830 0.0000 -0.9237
vn -0.5560 0.0000 -0.8312
vn -0.7075 0.0000 -0.7067
vn -0.8317 0.0000 -0.5552
vn -0.9239 0.0000 -0.3826
vn -0.9240 -0.0000 -0.3825
vn -0.9808 -0.0000 -0.1948
vn -1.0000 0.0000 0.0000
vn -0.9808 0.0000 0.1950
vn -0.9240 0.0000 0.3825
vn -0.8317 -0.0000 0.5552
vn -0.8318 0.0000 0.5551
vn -0.7075 -0.0000 0.7067
vn -0.5560 -0.0000 0.8312
vn -0.3830 0.0000 0.9237
vn -0.3831 0.0000 0.9237
vn -0.1949 0.0000 0.9808
vn 0.0000 1.0000 0.0000
vn 0.3832 -0.0000 0.9237
vn 0.3830 -0.0000 0.9237
vn 0.7075 -0.0000 0.7067
vn 0.9239 0.0000 0.3826
vn 0.9239 -0.0000 -0.3826
vn 0.7074 0.0000 -0.7068
vn 0.3830 0.0000 -0.9237
vn -0.3831 0.0000 -0.9237
vn -0.7074 0.0000 -0.7068
vn -0.9240 0.0000 -0.3824
vn -0.9240 -0.0000 0.3824
vn -0.7074 -0.0000 0.7068
vn -0.3832 -0.0000 0.9237
vn 0.1954 0.0000 0.9807
vn 0.3829 0.0000 0.9238
vn 0.8317 0.0000 0.5553
vn 0.9807 0.0000 0.1953
vn 0.8317 0.0000 -0.5552
vn 0.5558 -0.0000 -0.8313
vn 0.5559 -0.0000 -0.8313
vn 0.3829 -0.0000 -0.9238
vn -0.8317 -0.0000 -0.5553
vn -0.9240 -0.0000 -0.3823
vn -0.9807 0.0000 -0.1953
vn -0.9807 0.0000 0.1953
vn -0.3827 -0.0000 0.9239
vn -0.3829 0.0000 0.9238
vn -0.1952 0.0000 0.9808
vn -0.1954 0.0000 0.9807
usemtl table
s 1
f 1/1/1 2/2/1 3/3/1
f 4/4/1 1/1/1 3/3/1
f 5/5/1 4/4/1 3/3/1
f 6/6/1 5/5/1 3/3/1
f 7/7/1 6/6/1 3/3/1
f 8/8/1 7/7/1 3/3/1
f 9/9/1 8/8/1 3/3/1
f 10/10/1 9/9/1 3/3/1
f 11/11/1 10/10/1 3/3/1
f 12/12/1 11/11/1 3/3/1
f 13/13/1 12/12/1 3/3/1
f 14/14/1 13/13/1 3/3/1
f 15/15/1 14/14/1 3/3/1
f 16/16/1 15/15/1 3/3/1
f 17/17/1 16/16/1 3/3/1
f 18/18/1 17/17/1 3/3/1
f 19/19/1 18/18/1 3/3/1
f 20/20/1 19/19/1 3/3/1
f 21/21/1 20/20/1 3/3/1
f 22/22/1 21/21/1 3/3/1
f 23/23/1 22/22/1 3/3/1
f 24/24/1 23/23/1 3/3/1
f 25/25/1 24/24/1 3/3/1
f 26/26/1 25/25/1 3/3/1
f 27/27/1 26/26/1 3/3/1
f 28/28/1 27/27/1 3/3/1
f 29/29/1 28/28/1 3/3/1
f 30/30/1 29/29/1 3/3/1
f 31/31/1 30/30/1 3/3/1
f 32/32/1 31/31/1 3/3/1
f 33/33/1 32/32/1 3/3/1
f 2/2/1 33/33/1 3/3/1
f 34/34/2 2/2/2 1/1/3
f 35/35/3 1/1/3 4/4/4
f 36/36/4 4/4/4 5/5/5
f 37/37/5 5/5/5 6/6/6
f 38/38/6 6/6/6 7/7/7
f 39/39/7 7/7/7 8/8/8
f 40/40/9 8/8/8 9/9/10
f 41/41/11 9/9/10 10/10/12
f 42/42/12 10/10/12 11/11/13
f 43/43/14 11/11/13 12/12/15
f 44/44/16 12/12/15 13/13/17
f 45/45/17 13/13/17 14/14/18
f 46/46/18 14/14/18 15/15/19
f 47/47/19 15/15/19 16/16/20
f 48/48/21 16/16/20 17/17/22
f 49/49/22 17/17/22 18/18/23
f 50/50/23 18/18/23 19/19/24
f 51/51/24 19/19/24 20/20/25
f 52/52/25 20/20/25 21/21/26
f 53/53/26 21/21/26 22/22/27
f 54/54/27 22/22/27 23/23/28
f 55/55/28 23/23/28 24/24/29
f 56/56/30 24/24/29 25/25/31
f 57/57/31 25/25/31 26/26/32
f 58/58/32 26/26/32 27/27/33
f 59/59/33 27/27/33 28/28/34
f 60/60/34 28/28/34 29/29/35
f 61/61/36 29/29/35 30/30/37
f 62/62/37 30/30/37 31/31/38
f 63/63/38 31/31/38 32/32/39
f 64/64/40 32/32/39 33/33/41
f 65/65/41 33/33/41 2/2/2
f 34/34/2 1/1/3 35/35/3
f 35/35/3 4/4/4 36/36/4
f 36/36/4 5/5/5 37/37/5
f 37/37/5 6/6/6 38/38/6
f 38/38/6 7/7/7 39/39/7
f 39/39/7 8/8/8 40/40/9
f 40/40/9 9/9/10 41/41/11
f 41/41/11 10/10/12 42/42/12
f 42/42/12 11/11/13 43/43/14
f 43/43/14 12/12/15 44/44/16
f 44/44/16 13/13/17 45/45/17
f 45/45/17 14/14/18 46/46/18
f 46/46/18 15/15/19 47/47/19
f 47/47/19 16/16/20 48/48/21
f 48/48/21 17/17/22 49/49/22
f 49/49/22 18/18/23 50/50/23
f 50/50/23 19/19/24 51/51/24
f 51/51/24 20/20/25 52/52/25
f 52/52/25 21/21/26 53/53/26
f 53/53/26 22/22/27 54/54/27
f 54/54/27 23/23/28 55/55/28
f 55/55/28 24/24/29 56/56/30
f 56/56/30 25/25/31 57/57/31
f 57/57/31 26/26/32 58/58/32
f 58/58/32 27/27/33 59/59/33
f 59/59/33 28/28/34 60/60/34
f 60/60/34 29/29/35 61/61/36
f 61/61/36 30/30/37 62/62/37
f 62/62/37 31/31/38 63/63/38
f 63/63/38 32/32/39 64/64/40
f 64/64/40 33/33/41 65/65/41
f 65/65/41 2/2/2 34/34/2
f 66/66/42 34/34/42 35/35/42
f 66/66/42 35/35/42 36/36/42
f 66/66/42 36/36/42 37/37/42
f 66/66/42 37/37/42 38/38/42
f 66/66/42 38/38/42 39/39/42
f 66/66/42 39/39/42 40/40/42
f 66/66/42 40/40/42 41/41/42
f 66/66/42 41/41/42 42/42/42
f 66/66/42 42/42/42 43/43/42
f 66/66/42 43/43/42 44/44/42
f 66/66/42 44/44/42 45/45/42
f 66/66/42 45/45/42 46/46/42
f 66/66/42 46/46/42 47/47/42
f 66/66/42 47/47/42 48/48/42
f 66/66/42 48/48/42 49/49/42
f 66/66/42 49/49/42 50/50/42
f 66/66/42 50/50/42 51/51/42
f 66/66/42 51/51/42 52/52/42
f 66/66/42 52/52/42 53/53/42
f 66/66/42 53/53/42 54/54/42
f 66/66/42 54/54/42 55/55/42
f 66/66/42 55/55/42 56/56/42
f 66/66/42 56/56/42 57/57/42
f 66/66/42 57/57/42 58/58/42
f 66/66/42 58/58/42 59/59/42
f 66/66/42 59/59/42 60/60/42
f 66/66/42 60/60/42 61/61/42
f 66/66/42 61/61/42 62/62/42
f 66/66/42 62/62/42 63/63/42
f 66/66/42 63/63/42 64/64/42
f 66/66/42 64/64/42 65/65/42
f 66/66/42 65/65/42 34/34/42
f 67/67/1 68/68/1 69/69/1
f 70/70/1 67/67/1 69/69/1
f 71/71/1 70/70/1 69/69/1
f 72/72/1 71/71/1 69/69/1
f 73/73/1 72/72/1 69/69/1
f 74/74/1 73/73/1 69/69/1
f 75/75/1 74/74/1 69/69/1
f 76/76/1 75/75/1 69/69/1
f 77/77/1 76/76/1 69/69/1
f 78/78/1 77/77/1 69/69/1
f 79/79/1 78/78/1 69/69/1
f 80/80/1 79/79/1 69/69/1
f 81/81/1 80/80/1 69/69/1
f 82/82/1 81/81/1 69/69/1
f 83/83/1 82/82/1 69/69/1
f 68/68/1 83/83/1 69/69/1
f 84/84/2 68/68/2 67/67/43
f 85/85/44 67/67/43 70/70/45
f 86/86/6 70/70/45 71/71/8
f 87/87/46 71/71/8 72/72/12
f 88/88/12 72/72/12 73/73/47
f 89/89/15 73/73/47 74/74/48
f 90/90/18 74/74/48 75/75/49
f 91/91/49 75/75/49 76/76/23
f 92/92/23 76/76/23 77/77/50
f 93/93/25 77/77/50 78/78/27
f 94/94/51 78/78/27 79/79/52
f 95/95/29 79/79/52 80/80/32
f 96/96/32 80/80/32 81/81/34
f 97/97/53 81/81/34 82/82/54
f 98/98/54 82/82/54 83/83/39
f 99/99/55 83/83/39 68/68/2
f 84/84/2 67/67/43 85/85/44
f 85/85/44 70/70/45 86/86/6
f 86/86/6 71/71/8 87/87/46
f 87/87/46 72/72/12 88/88/12
f 88/88/12 73/73/47 89/89/15
f 89/89/15 74/74/48 90/90/18
f 90/90/18 75/75/49 91/91/49
f 91/91/49 76/76/23 92/92/23
f 92/92/23 77/77/50 93/93/25
f 93/93/25 78/78/27 94/94/51
f 94/94/51 79/79/52 95/95/29
f 95/95/29 80/80/32 96/96/32
f 96/96/32 81/81/34 97/97/53
f 97/97/53 82/82/54 98/98/54
f 98/98/54 83/83/39 99/99/55
f 99/99/55 68/68/2 84/84/2
f 100/100/42 84/84/42 85/85/42
f 100/100/42 85/85/42 86/86/42
f 100/100/42 86/86/42 87/87/42
f 100/100/42 87/87/42 88/88/42
f 100/100/42 88/88/42 89/89/42
f 100/100/42 89/89/42 90/90/42
f 100/100/42 90/90/42 91/91/42
f 100/100/42 91/91/42 92/92/42
f 100/100/42 92/92/42 93/93/42
f 100/100/42 93/93/42 94/94/42
f 100/100/42 94/94/42 95/95/42
f 100/100/42 95/95/42 96/96/42
f 100/100/42 96/96/42 97/97/42
f 100/100/42 97/97/42 98/98/42
f 100/100/42 98/98/42 99/99/42
f 100/100/42 99/99/42 84/84/42
f 101/101/1 102/102/1 103/103/1
f 104/104/1 101/101/1 103/103/1
f 105/105/1 104/104/1 103/103/1
f 106/106/1 105/105/1 103/103/1
f 107/107/1 106/106/1 103/103/1
f 108/108/1 107/107/1 103/103/1
f 109/109/1 108/108/1 103/103/1
f 110/110/1 109/109/1 103/103/1
f 111/111/1 110/110/1 103/103/1
f 112/112/1 111/111/1 103/103/1
f 113/113/1 112/112/1 103/103/1
f 114/114/1 113/113/1 103/103/1
f 115/115/1 114/114/1 103/103/1
f 116/116/1 115/115/1 103/103/1
f 117/117/1 116/116/1 103/103/1
f 118/118/1 117/117/1 103/103/1
f 119/119/1 118/118/1 103/103/1
f 120/120/1 119/119/1 103/103/1
f 121/121/1 120/120/1 103/103/1
f 122/122/1 121/121/1 103/103/1
f 123/123/1 122/122/1 103/103/1
f 124/124/1 123/123/1 103/103/1
f 125/125/1 124/124/1 103/103/1
f 126/126/1 125/125/1 103/103/1
f 127/127/1 126/126/1 103/103/1
f 128/128/1 127/127/1 103/103/1
f 129/129/1 128/128/1 103/103/1
f 130/130/1 129/129/1 103/103/1
f 131/131/1 130/130/1 103/103/1
f 132/132/1 131/131/1 103/103/1
f 133/133/1 132/132/1 103/103/1
f 102/102/1 133/133/1 103/103/1
f 134/134/2 102/102/2 101/101/56
f 135/135/56 101/101/56 104/104/57
f 136/136/57 104/104/57 105/105/5
f 137/137/5 105/105/5 106/106/45
f 138/138/6 106/106/45 107/107/7
f 139/139/58 107/107/7 108/108/8
f 140/140/8 108/108/8 109/109/59
f 141/141/59 109/109/59 110/110/12
f 142/142/12 110/110/12 111/111/14
f 143/143/14 111/111/14 112/112/47
f 144/144/47 112/112/47 113/113/17
f 145/145/60 113/113/17 114/114/48
f 146/146/18 114/114/48 115/115/61
f 147/147/62 115/115/61 116/116/63
f 148/148/63 116/116/63 117/117/22
f 149/149/22 117/117/22 118/118/23
f 150/150/23 118/118/23 119/119/24
f 151/151/24 119/119/24 120/120/25
f 152/152/25 120/120/25 121/121/26
f 153/153/26 121/121/26 122/122/51
f 154/154/27 122/122/51 123/123/28
f 155/155/64 123/123/28 124/124/65
f 156/156/52 124/124/65 125/125/66
f 157/157/66 125/125/66 126/126/32
f 158/158/32 126/126/32 127/127/33
f 159/159/67 127/127/33 128/128/53
f 160/160/53 128/128/53 129/129/35
f 161/161/35 129/129/35 130/130/37
f 162/162/37 130/130/37 131/131/38
f 163/163/38 131/131/38 132/132/68
f 164/164/69 132/132/68 133/133/70
f 165/165/71 133/133/70 102/102/2
f 134/134/2 101/101/56 135/135/56
f 135/135/56 104/104/57 136/136/57
f 136/136/57 105/105/5 137/137/5
f 137/137/5 106/106/45 138/138/6
f 138/138/6 107/107/7 139/139/58
f 139/139/58 108/108/8 140/140/8
f 140/140/8 109/109/59 141/141/59
f 141/141/59 110/110/12 142/142/12
f 142/142/12 111/111/14 143/143/14
f 143/143/14 112/112/47 144/144/47
f 144/144/47 113/113/17 145/145/60
f 145/145/60 114/114/48 146/146/18
f 146/146/18 115/115/61 147/147/62
f 147/147/62 116/116/63 148/148/63
f 148/148/63 117/117/22 149/149/22
f 149/149/22 118/118/23 150/150/23
f 150/150/23 119/119/24 151/151/24
f 151/151/24 120/120/25 152/152/25
f 152/152/25 121/121/26 153/153/26
f 153/153/26 122/122/51 154/154/27
f 154/154/27 123/123/28 155/155/64
f 155/155/64 124/124/65 156/156/52
f 156/156/52 125/125/66 157/157/66
f 157/157/66 126/126/32 158/158/32
f 158/158/32 127/127/33 159/159/67
f 159/159/67 128/128/53 160/160/53
f 160/160/53 129/129/35 161/161/35
f 161/161/35 130/130/37 162/162/37
f 162/162/37 131/131/38 163/163/38
f 163/163/38 132/132/68 164/164/69
f 164/164/69 133/133/70 165/165/71
f 165/165/71 102/102/2 134/134/2
f 166/166/42 134/134/42 135/135/42
f 166/166/42 135/135/42 136/136/42
f 166/166/42 136/136/42 137/137/42
f 166/166/42 137/137/42 138/138/42
f 166/166/42 138/138/42 139/139/42
f 166/166/42 139/139/42 140/140/42
f 166/166/42 140/140/42 141/141/42
f 166/166/42 141/141/42 142/142/42
f 166/166/42 142/142/42 143/143/42
f 166/166/42 143/143/42 144/144/42
f 166/166/42 144/144/42 145/145/42
f 166/166/42 145/145/42 146/146/42
f 166/166/42 146/146/42 147/147/42
f 166/166/42 147/147/42 148/148/42
f 166/166/42 148/148/42 149/149/42
f 166/166/42 149/149/42 150/150/42
f 166/166/42 150/150/42 151/151/42
f 166/166/42 151/151/42 152/152/42
f 166/166/42 152/152/42 153/153/42
f 166/166/42 153/153/42 154/154/42
f 166/166/42 154/154/42 155/155/42
f 166/166/42 155/155/42 156/156/42
f 166/166/42 156/156/42 157/157/42
f 166/166/42 157/157/42 158/158/42
f 166/166/42 158/158/42 159/159/42
f 166/166/42 159/159/42 160/160/42
f 166/166/42 160/160/42 161/161/42
f 166/166/42 161/161/42 162/162/42
f 166/166/42 162/162/42 163/163/42
f 166/166/42 163/163/42 164/164/42
f 166/166/42 164/164/42 165/165/42
f 166/166/42 165/165/42 134/134/42
