# Blender v2.83.0 OBJ File: ''
# www.blender.org
mtllib side-table.mtl
o side-table.001
v -1.256470 0.840493 -1.420688
v -1.256470 0.840493 -0.671883
v -2.005275 0.840493 -0.671883
v -2.005275 0.840493 -1.420688
v -1.256470 0.882056 -1.420688
v -2.005275 0.882056 -1.420688
v -1.256470 0.882056 -0.671883
v -2.005275 0.882056 -0.671883
v -2.038311 -0.000000 -1.451522
v -1.972240 -0.000000 -1.451522
v -1.972240 -0.000000 -1.385450
v -2.038311 -0.000000 -1.385450
v -2.038311 1.154523 -1.385450
v -1.972240 1.154523 -1.385450
v -1.972240 1.154523 -1.451522
v -2.038311 1.154523 -1.451522
v -1.289505 -0.000000 -0.702716
v -1.223434 -0.000000 -0.702716
v -1.223434 -0.000000 -0.636645
v -1.289505 -0.000000 -0.636645
v -1.223434 1.154523 -0.702716
v -1.223434 1.154523 -0.636645
v -1.289505 1.154523 -0.702716
v -1.289505 1.154523 -0.636645
v -1.256470 0.217050 -1.420688
v -1.256470 0.217050 -0.671883
v -2.005275 0.217050 -0.671883
v -2.005275 0.217050 -1.420688
v -1.256470 0.258613 -1.420688
v -1.256470 0.258613 -0.671883
v -2.005275 0.258613 -1.420688
v -2.005275 0.258613 -0.671883
v -2.038311 1.154523 -0.702716
v -2.038311 -0.000000 -0.702716
v -2.038311 -0.000000 -0.636645
v -2.038311 1.154523 -0.636645
v -1.972240 1.154523 -0.636645
v -1.972240 1.154523 -0.702716
v -1.972240 -0.000000 -0.702716
v -1.972240 -0.000000 -0.636645
v -2.071346 1.159141 -0.605812
v -2.071346 1.117578 -0.605812
v -1.190399 1.117578 -0.605812
v -1.190399 1.159141 -0.605812
v -1.190399 1.159141 -1.486759
v -1.190399 1.117578 -1.486759
v -2.071346 1.159141 -1.486759
v -2.071346 1.117578 -1.486759
v -1.289505 -0.000000 -1.451522
v -1.223434 -0.000000 -1.451522
v -1.223434 -0.000000 -1.385450
v -1.289505 -0.000000 -1.385450
v -1.289505 1.154523 -1.451522
v -1.223434 1.154523 -1.451522
v -1.289505 1.154523 -1.385450
v -1.223434 1.154523 -1.385450
vt 0.351500 0.714050
vt 0.351500 0.391050
vt 0.028500 0.391050
vt 0.028500 0.714050
vt 0.351500 0.731978
vt 0.028500 0.731978
vt 0.351500 0.408978
vt 0.028500 0.408978
vt 0.014250 0.364800
vt 0.042750 0.364800
vt 0.042750 0.336300
vt 0.014250 0.336300
vt 0.014250 0.834308
vt 0.042750 0.834308
vt 0.042750 0.862808
vt 0.014250 0.862808
vt 0.337250 0.041800
vt 0.365750 0.041800
vt 0.365750 0.013300
vt 0.337250 0.013300
vt 0.365750 0.539808
vt 0.365750 0.511308
vt 0.337250 0.539808
vt 0.337250 0.511308
vt 0.351500 0.445125
vt 0.351500 0.122125
vt 0.028500 0.122125
vt 0.028500 0.445125
vt 0.351500 0.463054
vt 0.351500 0.140054
vt 0.028500 0.463054
vt 0.028500 0.140054
vt 0.014250 0.539808
vt 0.014250 0.041800
vt 0.014250 0.013300
vt 0.014250 0.511308
vt 0.042750 0.511308
vt 0.042750 0.539808
vt 0.042750 0.041800
vt 0.042750 0.013300
vt 0.000000 0.500000
vt 0.000000 0.482072
vt 0.380000 0.482072
vt 0.380000 0.500000
vt 0.380000 0.880000
vt 0.380000 0.862072
vt 0.000000 0.880000
vt 0.000000 0.862072
vt 0.337250 0.364800
vt 0.365750 0.364800
vt 0.365750 0.336300
vt 0.337250 0.336300
vt 0.337250 0.862808
vt 0.365750 0.862808
vt 0.337250 0.834308
vt 0.365750 0.834308
vn 0.0000 -1.0000 -0.0000
vn 0.0000 0.0000 -1.0000
vn 0.0000 1.0000 0.0000
vn 0.0000 0.0000 1.0000
vn 1.0000 0.0000 0.0000
vn -1.0000 0.0000 0.0000
usemtl amber.001
s 1
f 1/1/1 2/2/1 3/3/1
f 1/1/1 3/3/1 4/4/1
f 5/5/2 1/1/2 4/4/2
f 5/5/2 4/4/2 6/6/2
f 7/7/3 5/5/3 6/6/3
f 7/7/3 6/6/3 8/8/3
f 8/8/4 3/3/4 2/2/4
f 8/8/4 2/2/4 7/7/4
f 2/2/5 1/1/5 5/5/5
f 2/2/5 5/5/5 7/7/5
f 4/4/6 3/3/6 8/8/6
f 4/4/6 8/8/6 6/6/6
f 9/9/1 10/10/1 11/11/1
f 9/9/1 11/11/1 12/12/1
f 13/13/3 14/14/3 15/15/3
f 13/13/3 15/15/3 16/16/3
f 14/14/5 11/11/5 10/10/5
f 14/14/5 10/10/5 15/15/5
f 13/13/6 16/16/6 9/9/6
f 13/13/6 9/9/6 12/12/6
f 15/15/2 10/10/2 9/9/2
f 15/15/2 9/9/2 16/16/2
f 11/11/4 14/14/4 13/13/4
f 11/11/4 13/13/4 12/12/4
f 17/17/1 18/18/1 19/19/1
f 17/17/1 19/19/1 20/20/1
f 21/21/5 22/22/5 19/19/5
f 21/21/5 19/19/5 18/18/5
f 21/21/3 23/23/3 24/24/3
f 21/21/3 24/24/3 22/22/3
f 24/24/4 20/20/4 19/19/4
f 24/24/4 19/19/4 22/22/4
f 23/23/2 21/21/2 18/18/2
f 23/23/2 18/18/2 17/17/2
f 23/23/6 17/17/6 20/20/6
f 23/23/6 20/20/6 24/24/6
f 25/25/1 26/26/1 27/27/1
f 25/25/1 27/27/1 28/28/1
f 26/26/5 25/25/5 29/29/5
f 26/26/5 29/29/5 30/30/5
f 30/30/3 29/29/3 31/31/3
f 30/30/3 31/31/3 32/32/3
f 32/32/4 27/27/4 26/26/4
f 32/32/4 26/26/4 30/30/4
f 29/29/2 25/25/2 28/28/2
f 29/29/2 28/28/2 31/31/2
f 28/28/6 27/27/6 32/32/6
f 28/28/6 32/32/6 31/31/6
f 33/33/6 34/34/6 35/35/6
f 33/33/6 35/35/6 36/36/6
f 36/36/3 37/37/3 38/38/3
f 36/36/3 38/38/3 33/33/3
f 39/39/5 38/38/5 37/37/5
f 39/39/5 37/37/5 40/40/5
f 34/34/1 39/39/1 40/40/1
f 34/34/1 40/40/1 35/35/1
f 38/38/2 39/39/2 34/34/2
f 38/38/2 34/34/2 33/33/2
f 40/40/4 37/37/4 36/36/4
f 40/40/4 36/36/4 35/35/4
f 41/41/4 42/42/4 43/43/4
f 41/41/4 43/43/4 44/44/4
f 45/45/5 44/44/5 43/43/5
f 45/45/5 43/43/5 46/46/5
f 45/45/3 47/47/3 41/41/3
f 45/45/3 41/41/3 44/44/3
f 46/46/1 43/43/1 42/42/1
f 46/46/1 42/42/1 48/48/1
f 41/41/6 47/47/6 48/48/6
f 41/41/6 48/48/6 42/42/6
f 46/46/2 48/48/2 47/47/2
f 46/46/2 47/47/2 45/45/2
f 49/49/1 50/50/1 51/51/1
f 49/49/1 51/51/1 52/52/1
f 49/49/2 53/53/2 54/54/2
f 49/49/2 54/54/2 50/50/2
f 55/55/4 52/52/4 51/51/4
f 55/55/4 51/51/4 56/56/4
f 56/56/5 51/51/5 50/50/5
f 56/56/5 50/50/5 54/54/5
f 54/54/3 53/53/3 55/55/3
f 54/54/3 55/55/3 56/56/3
f 52/52/6 55/55/6 53/53/6
f 52/52/6 53/53/6 49/49/6
