# Blender v2.83.0 OBJ File: ''
# www.blender.org
mtllib lower-cabinet.mtl
o lower-cabinet
v -2.519337 1.090208 -2.129023
v -2.505434 1.090208 -2.142928
v -2.505434 1.090208 -2.173760
v -2.519337 1.090208 -2.173760
v -2.067157 1.090208 -2.129023
v -2.081061 1.090208 -2.142928
v -2.067157 1.090208 -2.173760
v -2.081061 1.090208 -2.173760
v -2.519942 1.075656 -2.128418
v -2.519942 1.089602 -2.128418
v -2.519942 1.089602 -2.173760
v -2.519942 1.075656 -2.173760
v -2.066553 1.075656 -2.128418
v -2.066553 1.089602 -2.128418
v -2.066553 1.075656 -2.173760
v -2.066553 1.089602 -2.173760
v -2.067157 1.075050 -2.173760
v -2.081061 1.075050 -2.173760
v -2.081666 1.075656 -2.173760
v -2.081666 1.089602 -2.173760
v -2.081666 1.075656 -2.143532
v -2.081666 1.089602 -2.143532
v -2.504829 1.075656 -2.143532
v -2.504829 1.089602 -2.143532
v -2.504829 1.075656 -2.173760
v -2.504829 1.089602 -2.173760
v -2.505434 1.075050 -2.173760
v -2.519337 1.075050 -2.173760
v -2.505434 1.075050 -2.142928
v -2.519337 1.075050 -2.129023
v -2.081061 1.075050 -2.142928
v -2.067157 1.075050 -2.129023
v -2.519337 0.518731 -2.129023
v -2.505434 0.518731 -2.142928
v -2.505434 0.518731 -2.173760
v -2.519337 0.518731 -2.173760
v -2.067157 0.518731 -2.129023
v -2.081061 0.518731 -2.142928
v -2.067157 0.518731 -2.173760
v -2.081061 0.518731 -2.173760
v -2.519942 0.504179 -2.128418
v -2.519942 0.518125 -2.128418
v -2.519942 0.518125 -2.173760
v -2.519942 0.504179 -2.173760
v -2.066553 0.504179 -2.128418
v -2.066553 0.518125 -2.128418
v -2.066553 0.504179 -2.173760
v -2.066553 0.518125 -2.173760
v -2.067157 0.503573 -2.173760
v -2.081061 0.503573 -2.173760
v -2.081666 0.504179 -2.173760
v -2.081666 0.518125 -2.173760
v -2.081666 0.504179 -2.143532
v -2.081666 0.518125 -2.143532
v -2.504829 0.504179 -2.143532
v -2.504829 0.518125 -2.143532
v -2.504829 0.504179 -2.173760
v -2.504829 0.518125 -2.173760
v -2.505434 0.503573 -2.173760
v -2.519337 0.503573 -2.173760
v -2.505434 0.503573 -2.142928
v -2.519337 0.503573 -2.129023
v -2.081061 0.503573 -2.142928
v -2.067157 0.503573 -2.129023
v -2.973790 0.569643 -2.159741
v -2.973790 0.569643 -2.184266
v -1.612705 0.569643 -2.184266
v -1.612705 0.569643 -2.159741
v -2.973790 1.136421 -2.159741
v -1.612705 1.136421 -2.159741
v -1.612705 1.136421 -2.184266
v -2.973790 1.136421 -2.184266
v -2.973790 0.000156 -2.159741
v -2.973790 0.000156 -2.184266
v -1.612705 0.000156 -2.184266
v -1.612705 0.000156 -2.159741
v -2.973790 0.561941 -2.159741
v -1.612705 0.561941 -2.159741
v -1.612705 0.561941 -2.184266
v -2.973790 0.561941 -2.184266
v -2.973748 -0.000000 -2.188663
v -2.973748 -0.000000 -3.075809
v -1.613600 -0.000000 -3.075809
v -1.613600 -0.000000 -2.188663
v -2.973748 1.136869 -2.188663
v -1.613600 1.136869 -2.188663
v -1.613600 1.136869 -3.075809
v -2.973748 1.136869 -3.075809
vt 0.986667 0.001333
vt 0.680000 0.032000
vt 0.000000 0.032000
vt 0.000000 0.001333
vt 0.986667 0.998667
vt 0.680000 0.968000
vt 0.000000 0.998667
vt 0.000000 0.968000
vt 0.042857 0.040000
vt 0.042857 0.960000
vt 0.000000 0.960000
vt 0.000000 0.040000
vt 0.471429 0.040000
vt 0.471429 0.960000
vt 0.514286 0.040000
vt 0.514286 0.960000
vt 0.514857 0.000000
vt 0.528000 0.000000
vt 0.528571 0.040000
vt 0.528571 0.960000
vt 0.528000 1.000000
vt 0.514857 1.000000
vt 0.557143 0.040000
vt 0.557143 0.960000
vt 0.957143 0.040000
vt 0.957143 0.960000
vt 0.985714 0.040000
vt 0.985714 0.960000
vt 0.986286 0.000000
vt 0.999429 0.000000
vt 1.000000 0.040000
vt 1.000000 0.960000
vt 0.999429 1.000000
vt 0.986286 1.000000
vt 0.680000 0.968000
vt 0.986667 0.998667
vt 0.000000 0.998667
vt 0.000000 0.968000
vt 0.680000 0.032000
vt 0.986667 0.001333
vt 0.000000 0.032000
vt 0.000000 0.001333
vt 0.986667 0.001333
vt 0.680000 0.032000
vt 0.000000 0.032000
vt 0.000000 0.001333
vt 0.986667 0.998667
vt 0.680000 0.968000
vt 0.000000 0.998667
vt 0.000000 0.968000
vt 0.042857 0.040000
vt 0.042857 0.960000
vt 0.000000 0.960000
vt 0.000000 0.040000
vt 0.471429 0.040000
vt 0.471429 0.960000
vt 0.514286 0.040000
vt 0.514286 0.960000
vt 0.514857 0.000000
vt 0.528000 0.000000
vt 0.528571 0.040000
vt 0.528571 0.960000
vt 0.528000 1.000000
vt 0.514857 1.000000
vt 0.557143 0.040000
vt 0.557143 0.960000
vt 0.957143 0.040000
vt 0.957143 0.960000
vt 0.985714 0.040000
vt 0.985714 0.960000
vt 0.986286 0.000000
vt 0.999429 0.000000
vt 1.000000 0.040000
vt 1.000000 0.960000
vt 0.999429 1.000000
vt 0.986286 1.000000
vt 0.680000 0.968000
vt 0.986667 0.998667
vt 0.000000 0.998667
vt 0.000000 0.968000
vt 0.680000 0.032000
vt 0.986667 0.001333
vt 0.000000 0.032000
vt 0.000000 0.001333
vt 1.000000 0.000000
vt 1.000000 1.000000
vt 0.000000 1.000000
vt 0.000000 0.000000
vt 0.000000 0.000000
vt 1.000000 0.000000
vt 1.000000 1.000000
vt 0.000000 1.000000
vt 0.000000 0.000000
vt 1.000000 0.000000
vt 1.000000 1.000000
vt 0.000000 1.000000
vt 1.000000 0.000000
vt 0.000000 1.000000
vt 0.000000 0.000000
vt 1.000000 0.000000
vt 1.000000 1.000000
vt 0.000000 1.000000
vt 0.000000 0.000000
vt 1.000000 1.000000
vt 1.000000 0.000000
vt 1.000000 1.000000
vt 0.000000 1.000000
vt 0.000000 0.000000
vt 0.000000 0.000000
vt 1.000000 0.000000
vt 1.000000 1.000000
vt 0.000000 1.000000
vt 0.000000 0.000000
vt 1.000000 0.000000
vt 1.000000 1.000000
vt 0.000000 1.000000
vt 1.000000 0.000000
vt 0.000000 1.000000
vt 0.000000 0.000000
vt 1.000000 0.000000
vt 1.000000 1.000000
vt 0.000000 1.000000
vt 0.000000 0.000000
vt 1.000000 1.000000
vt 1.000000 0.000000
vt 1.000000 1.000000
vt 0.000000 1.000000
vt 0.000000 0.000000
vt 0.000000 0.000000
vt 1.000000 0.000000
vt 1.000000 1.000000
vt 0.000000 1.000000
vt 0.000000 0.000000
vt 1.000000 0.000000
vt 1.000000 1.000000
vt 0.000000 1.000000
vt 1.000000 0.000000
vt 0.000000 1.000000
vt 0.000000 0.000000
vt 1.000000 0.000000
vt 1.000000 1.000000
vt 0.000000 1.000000
vt 0.000000 0.000000
vt 1.000000 1.000000
vn 0.0000 1.0000 -0.0000
vn -1.0000 0.0000 0.0000
vn 0.0000 0.0000 1.0000
vn 1.0000 0.0000 0.0000
vn 0.0000 0.0000 -1.0000
vn 0.0001 0.0000 -1.0000
vn -0.0001 0.0000 -1.0000
vn 0.0000 -1.0000 0.0000
vn -0.7057 0.7085 0.0000
vn -0.7059 0.7083 0.0000
vn -0.7060 0.7082 -0.0000
vn 0.7062 0.7080 0.0000
vn 0.7058 0.7085 0.0000
vn 0.7057 0.7085 0.0000
vn -0.0000 0.7081 0.7061
vn -0.0000 0.7082 0.7060
vn -0.0000 -0.7080 0.7062
vn -0.0000 -0.7082 0.7060
vn 0.7062 -0.7080 0.0000
vn 0.7057 -0.7085 0.0000
vn -0.7063 0.7079 0.0000
vn -0.7056 0.7086 0.0000
vn -0.7056 0.7087 -0.0000
vn -0.0000 0.7083 -0.7059
vn -0.0000 0.7080 -0.7062
vn 0.7058 -0.7084 0.0000
vn -0.7053 -0.7089 -0.0000
vn -0.7064 -0.7079 0.0000
vn -0.0000 -0.7082 -0.7061
vn 0.0000 -0.7082 -0.7060
vn -0.7056 -0.7086 -0.0000
vn -0.7056 -0.7087 0.0000
vn -0.7063 -0.7079 0.0000
vn 0.0004 0.0000 -1.0000
vn -0.0002 0.0000 -1.0000
vn 0.0003 0.0000 -1.0000
vn 0.7059 0.7083 0.0000
vn 0.7060 0.7082 0.0000
vn 0.7061 0.7081 0.0000
vn -0.0000 0.7082 0.7061
vn -0.0000 -0.7081 0.7061
vn 0.0000 -0.7082 0.7061
vn -0.0000 0.7082 -0.7060
vn -0.0000 0.7082 -0.7061
vn -0.7055 -0.7087 -0.0000
vn -0.7064 -0.7078 0.0000
vn -0.0000 -0.7083 -0.7060
vn -0.0000 -0.7081 -0.7061
usemtl 1.005
s 1
f 1/1/1 2/2/1 3/3/1
f 3/3/1 4/4/1 1/1/1
f 5/5/1 6/6/1 2/2/1
f 2/2/1 1/1/1 5/5/1
f 7/7/1 8/8/1 6/6/1
f 6/6/1 5/5/1 7/7/1
f 9/9/2 10/10/2 11/11/2
f 11/11/2 12/12/2 9/9/2
f 13/13/3 14/14/3 10/10/3
f 10/10/3 9/9/3 13/13/3
f 15/15/4 16/16/4 14/14/4
f 14/14/4 13/13/4 15/15/4
f 16/16/5 15/15/6 17/17/5
f 17/17/5 18/18/5 19/19/5
f 16/16/5 17/17/5 19/19/5
f 19/19/5 20/20/7 8/21/5
f 16/16/5 19/19/5 8/21/5
f 7/22/5 16/16/5 8/21/5
f 21/23/2 22/24/2 20/20/2
f 20/20/2 19/19/2 21/23/2
f 23/25/5 24/26/5 22/24/5
f 22/24/5 21/23/5 23/25/5
f 25/27/4 26/28/4 24/26/4
f 24/26/4 23/25/4 25/27/4
f 26/28/5 25/27/6 27/29/5
f 27/29/5 28/30/5 12/31/5
f 26/28/5 27/29/5 12/31/5
f 12/31/5 11/32/7 4/33/5
f 26/28/5 12/31/5 4/33/5
f 3/34/5 26/28/5 4/33/5
f 29/35/8 30/36/8 28/37/8
f 28/37/8 27/38/8 29/35/8
f 31/39/8 32/40/8 30/36/8
f 30/36/8 29/35/8 31/39/8
f 18/41/8 17/42/8 32/40/8
f 32/40/8 31/39/8 18/41/8
f 4/4/9 11/11/9 10/10/10
f 10/10/10 1/1/11 4/4/9
f 2/2/12 24/26/12 26/28/13
f 26/28/13 3/3/14 2/2/12
f 1/1/15 10/10/15 14/14/16
f 14/14/16 5/5/16 1/1/15
f 5/5/14 14/14/14 16/16/12
f 16/16/12 7/7/12 5/5/14
f 9/9/17 30/36/17 32/40/18
f 32/40/18 13/13/18 9/9/17
f 13/13/19 32/40/19 17/17/20
f 17/17/20 15/15/20 13/13/19
f 22/24/21 6/6/21 8/8/22
f 8/8/22 20/20/23 22/24/21
f 24/26/24 2/2/24 6/6/25
f 6/6/25 22/24/25 24/26/24
f 27/38/19 25/27/19 23/25/26
f 23/25/26 29/35/20 27/38/19
f 30/36/27 9/9/27 12/12/28
f 12/12/28 28/37/28 30/36/27
f 29/35/29 23/25/29 21/23/30
f 21/23/30 31/39/30 29/35/29
f 31/39/31 21/23/32 19/19/33
f 19/19/33 18/18/33 31/39/31
f 33/43/1 34/44/1 35/45/1
f 35/45/1 36/46/1 33/43/1
f 37/47/1 38/48/1 34/44/1
f 34/44/1 33/43/1 37/47/1
f 39/49/1 40/50/1 38/48/1
f 38/48/1 37/47/1 39/49/1
f 41/51/2 42/52/2 43/53/2
f 43/53/2 44/54/2 41/51/2
f 45/55/3 46/56/3 42/52/3
f 42/52/3 41/51/3 45/55/3
f 47/57/4 48/58/4 46/56/4
f 46/56/4 45/55/4 47/57/4
f 48/58/5 47/57/34 49/59/6
f 49/59/6 50/60/5 51/61/5
f 48/58/5 49/59/6 51/61/5
f 51/61/5 52/62/35 40/63/7
f 48/58/5 51/61/5 40/63/7
f 39/64/5 48/58/5 40/63/7
f 53/65/2 54/66/2 52/62/2
f 52/62/2 51/61/2 53/65/2
f 55/67/5 56/68/5 54/66/5
f 54/66/5 53/65/5 55/67/5
f 57/69/4 58/70/4 56/68/4
f 56/68/4 55/67/4 57/69/4
f 58/70/5 57/69/36 59/71/6
f 59/71/6 60/72/5 44/73/5
f 58/70/5 59/71/6 44/73/5
f 44/73/5 43/74/7 36/75/5
f 58/70/5 44/73/5 36/75/5
f 35/76/5 58/70/5 36/75/5
f 61/77/8 62/78/8 60/79/8
f 60/79/8 59/80/8 61/77/8
f 63/81/8 64/82/8 62/78/8
f 62/78/8 61/77/8 63/81/8
f 50/83/8 49/84/8 64/82/8
f 64/82/8 63/81/8 50/83/8
f 36/46/10 43/53/10 42/52/11
f 42/52/11 33/43/11 36/46/10
f 34/44/37 56/68/37 58/70/38
f 58/70/38 35/45/39 34/44/37
f 33/43/40 42/52/40 46/56/15
f 46/56/15 37/47/15 33/43/40
f 37/47/14 46/56/14 48/58/39
f 48/58/39 39/49/39 37/47/14
f 41/51/41 62/78/41 64/82/18
f 64/82/18 45/55/42 41/51/41
f 45/55/19 64/82/19 49/59/20
f 49/59/20 47/57/20 45/55/19
f 54/66/21 38/48/21 40/50/22
f 40/50/22 52/62/22 54/66/21
f 56/68/43 34/44/43 38/48/44
f 38/48/44 54/66/44 56/68/43
f 59/80/19 57/69/19 55/67/26
f 55/67/26 61/77/26 59/80/19
f 62/78/45 41/51/45 44/54/46
f 44/54/46 60/79/46 62/78/45
f 61/77/47 55/67/30 53/65/48
f 53/65/48 63/81/48 61/77/47
f 63/81/31 53/65/31 51/61/33
f 51/61/33 50/60/33 63/81/31
usemtl Box09_3
f 65/85/8 66/86/8 67/87/8
f 67/87/8 68/88/8 65/85/8
f 69/89/1 70/90/1 71/91/1
f 71/91/1 72/92/1 69/89/1
f 65/93/3 68/94/3 70/95/3
f 70/95/3 69/96/3 65/93/3
f 68/88/4 67/97/4 71/91/4
f 71/91/4 70/98/4 68/88/4
f 67/99/5 66/100/5 72/101/5
f 72/101/5 71/102/5 67/99/5
f 66/103/2 65/85/2 69/104/2
f 69/104/2 72/92/2 66/103/2
f 73/105/8 74/106/8 75/107/8
f 75/107/8 76/108/8 73/105/8
f 77/109/1 78/110/1 79/111/1
f 79/111/1 80/112/1 77/109/1
f 73/113/3 76/114/3 78/115/3
f 78/115/3 77/116/3 73/113/3
f 76/108/4 75/117/4 79/111/4
f 79/111/4 78/118/4 76/108/4
f 75/119/5 74/120/5 80/121/5
f 80/121/5 79/122/5 75/119/5
f 74/123/2 73/105/2 77/124/2
f 77/124/2 80/112/2 74/123/2
f 81/125/8 82/126/8 83/127/8
f 83/127/8 84/128/8 81/125/8
f 85/129/1 86/130/1 87/131/1
f 87/131/1 88/132/1 85/129/1
f 81/133/3 84/134/3 86/135/3
f 86/135/3 85/136/3 81/133/3
f 84/128/4 83/137/4 87/131/4
f 87/131/4 86/138/4 84/128/4
f 83/139/5 82/140/5 88/141/5
f 88/141/5 87/142/5 83/139/5
f 82/143/2 81/125/2 85/144/2
f 85/144/2 88/132/2 82/143/2
