# Blender v2.83.0 OBJ File: ''
# www.blender.org
mtllib wall.mtl
o wall
v -0.010215 -0.000000 0.027273
v -0.010215 -0.000000 1.851197
v 0.102026 -0.000000 1.851197
v 0.102026 -0.000000 0.027273
v 0.045906 -0.000000 1.851197
v 0.045906 -0.000000 0.027273
v 0.102026 0.089092 1.851197
v 0.102026 0.089092 0.027273
v 0.116056 -0.000000 1.851197
v 0.116056 0.089092 1.851197
v 0.116056 -0.000000 0.027273
v 0.116056 0.089092 0.027273
v -0.024245 -0.000000 0.027273
v -0.024245 -0.000000 1.851197
v -0.024245 0.089092 1.851197
v -0.024245 0.089092 0.027273
v -0.010215 0.089092 1.851197
v -0.010215 0.089092 0.027273
v 0.102026 2.946339 1.851197
v 0.045906 2.946339 1.851197
v 0.102026 2.946339 0.027273
v 0.045906 2.946339 0.027273
v -0.010215 2.946339 1.851197
v -0.010215 2.946339 0.027273
vt 0.000000 0.000000
vt 0.000000 0.000000
vt 0.000000 0.000000
vt 0.000000 0.000000
vt 0.000000 0.000000
vt 0.000000 0.000000
vt 0.040000 0.000000
vt 0.040000 2.100000
vt 0.000000 2.100000
vt -1.300000 0.000000
vt 0.000000 2.100000
vt -1.300000 2.100000
vt 0.040000 0.000000
vt 0.040000 2.100000
vt 1.300000 0.000000
vt 1.300000 2.100000
vt 0.000000 2.100000
vt 0.040000 0.000000
vt 0.040000 2.100000
vt 0.000000 2.100000
vt 0.040000 0.000000
vt 0.040000 2.100000
vt 0.000000 2.100000
vt 0.000000 0.000000
vt 0.000000 0.000000
vt 0.000000 0.000000
vt 0.000000 0.000000
vt 0.000000 0.000000
vt 0.000000 0.000000
vt 1.300000 0.000000
vt 1.300000 0.063500
vt 0.000000 0.063500
vt 0.010000 0.000000
vt 0.010000 0.063500
vt 0.000000 0.063500
vt -1.300000 0.000000
vt 0.000000 0.000000
vt 0.000000 0.063500
vt -1.300000 0.063500
vt 0.010000 0.000000
vt 0.010000 0.063500
vt 0.000000 0.000000
vt 0.000000 0.000000
vt 0.000000 0.000000
vt 0.000000 0.000000
vt 0.000000 0.000000
vt 0.000000 0.000000
vt 1.300000 0.000000
vt 1.300000 0.063500
vt 0.000000 0.063500
vt 0.000000 0.000000
vt 0.010000 0.000000
vt 0.010000 0.063500
vt 0.000000 0.063500
vt 1.300000 0.000000
vt 1.300000 0.063500
vt 0.000000 0.063500
vt 0.010000 0.000000
vt 0.010000 0.063500
vt 0.000000 0.063500
vt 0.000000 0.000000
vt 0.000000 0.000000
vt 0.000000 0.000000
vt 0.000000 0.000000
vn 0.0000 1.0000 0.0000
vn 0.0000 -1.0000 -0.0000
vn 0.0000 -0.0000 1.0000
vn 1.0000 0.0000 0.0000
vn 0.0000 0.0000 -1.0000
vn -1.0000 0.0000 0.0000
usemtl ground_1
s 1
f 1/1/1 2/2/1 3/3/1
f 1/1/1 3/3/1 4/4/1
usemtl wall_1_2
f 4/4/2 3/3/2 5/5/2
f 4/4/2 5/5/2 6/6/2
f 6/6/2 5/5/2 2/2/2
f 6/6/2 2/2/2 1/1/2
f 5/5/3 3/7/3 19/8/3 20/9/3
f 3/10/4 4/4/4 21/11/4 19/12/4
f 4/4/5 6/13/5 22/14/5 21/11/5
f 1/1/6 2/15/6 23/16/6 24/17/6
f 2/2/3 5/18/3 20/19/3 23/20/3
f 6/6/5 1/21/5 24/22/5 22/23/5
f 22/24/1 20/25/1 19/26/1
f 22/24/1 19/26/1 21/27/1
f 24/28/1 23/29/1 20/25/1
f 24/28/1 20/25/1 22/24/1
usemtl wall_1_4
f 4/4/6 3/30/6 7/31/6 8/32/6
f 3/3/3 9/33/3 10/34/3 7/35/3
f 9/36/4 11/37/4 12/38/4 10/39/4
f 11/37/5 4/40/5 8/41/5 12/38/5
f 11/37/2 9/42/2 3/3/2
f 11/37/2 3/3/2 4/4/2
f 8/43/1 7/44/1 10/45/1
f 8/43/1 10/45/1 12/46/1
f 13/47/6 14/48/6 15/49/6 16/50/6
f 14/51/3 2/52/3 17/53/3 15/54/3
f 2/2/4 1/55/4 18/56/4 17/57/4
f 1/1/5 13/58/5 16/59/5 18/60/5
f 1/1/2 2/2/2 14/51/2
f 1/1/2 14/51/2 13/47/2
f 16/61/1 15/62/1 17/63/1
f 16/61/1 17/63/1 18/64/1
